<svg xmlns:ns0="http://www.w3.org/2000/svg" xmlns="http://www.w3.org/2000/svg" width="394.1599" height="380.6243" viewBox="9.9831 13.0727 394.1599 380.6243"><ns0:path fill="#CF2B27" d="M161.438 230.219C171.488 229.755 181.791 230.17 191.862 230.167L252.296 230.162L328.379 230.164C342.902 230.166 357.478 229.908 371.995 230.335C371.981 233.456 372.048 236.578 372.196 239.696C380.19 240.248 394.309 237.289 400.614 243.067C403.023 245.275 403.93 248.476 404.037 251.655C404.143 254.825 403.498 257.99 401.213 260.332C395.649 266.037 379.929 264.041 372.312 264.205C370.714 282.689 371.874 302.415 371.939 321.021C371.966 328.884 372.551 337.273 371.155 345.021C370.08 350.992 367.81 356.376 364.949 361.691C363.09 364.738 361.043 367.65 358.654 370.31C337.639 393.697 305.853 386.906 278.018 388.297C282.756 385.171 286.546 381.225 288.782 375.94C291.34 369.893 291.906 361.794 288.953 355.762C284.596 346.862 250.45 315.975 240.985 306.946L179.416 248.413C175.675 244.845 163.027 234.171 161.438 230.219Z" />
	<ns0:path fill="#CF2B27" d="M48.044 104.752C48.1277 104.751 48.2116 104.746 48.2952 104.751C49.4879 104.813 50.2513 105.447 51.1367 106.185C61.551 114.862 71.3035 124.976 81.2458 134.216C92.0854 144.29 103.753 154.119 113.975 164.8C127.643 179.082 124.344 189.643 123.872 207.762C153.174 237.34 182.909 266.485 213.067 295.191L250.926 331.281C257.791 337.788 264.967 344.051 271.578 350.815C275.857 355.192 279.22 359.662 279.105 366.067C279.04 370.577 277.167 374.873 273.905 377.989C270.509 381.189 265.97 382.891 261.307 382.713C257.861 382.549 254.127 381.242 251.448 379.052C246.865 375.306 242.924 370.381 238.965 365.991L219.819 344.689C197.051 318.814 174.072 293.126 150.883 267.629C136.818 252.418 122.164 237.764 106.952 223.701C95.183 223.244 82.8921 223.538 72.719 216.662C69.4565 214.458 66.5441 211.248 63.918 208.322C53.9868 197.254 44.828 185.269 35.3893 173.769C27.595 164.272 19.1298 154.914 11.8868 145.008C11.0149 143.816 10.2731 142.739 9.9831 141.257C10.2637 140.225 10.2645 139.866 11.1973 139.261C12.8074 138.217 15.362 138.813 16.8943 139.737C19.9862 141.6 23.2892 145.964 25.9679 148.571L50.5349 172.325C55.7785 177.482 60.9594 183.276 66.6492 187.926C67.8797 188.932 69.0698 189.738 70.6424 190.089C74.0444 189.77 75.5229 187.476 77.6449 185.072C73.3967 179.269 68.3773 173.945 63.6314 168.545L38.9517 140.404C35.5788 136.571 31.9099 132.903 28.6728 128.972C27.9269 128.065 27.0711 126.754 27.3055 125.533C27.5802 124.102 28.3238 123.495 29.4442 122.755C31.2104 122.549 32.5497 123.301 33.9652 124.29C38.3074 127.324 42.0669 131.833 45.8988 135.507C55.4768 144.698 65.1119 153.829 74.8036 162.901C78.6363 166.479 82.3199 170.697 86.5476 173.794C88.1627 174.978 88.9231 175.253 90.8516 174.974C92.2585 174.075 93.1892 173.104 94.0067 171.634C94.7983 170.21 95.1697 169.073 94.5545 167.542C92.7943 163.164 87.2815 158.384 84.0906 154.768C79.1072 149.12 45.8786 112.468 44.7548 108.617C45.1715 106.962 46.811 105.839 48.044 104.752Z" />
	<ns0:path fill="#CF2B27" d="M161.997 13.0727C167.413 13.4413 173.407 19.6291 176.977 23.3224C196.81 43.8444 202.275 70.1949 191.302 96.7052C187.876 104.984 182.107 114.246 181.993 123.344C181.938 127.739 182.81 132.386 186.003 135.618C186.595 136.217 186.603 136.17 187.423 136.177C187.786 133.078 187.855 129.147 188.954 126.247C193.18 115.104 209.103 104.226 215.485 91.584C216.718 89.1413 218.103 86.3686 218.741 83.6928C219.799 79.2611 219.176 72.8515 221.403 68.99C222.474 68.9288 223.21 69.2071 224.104 69.83C229.649 73.6975 235.239 91.0811 236.506 97.3307C240.149 115.302 235.387 131.431 223.448 145.278C216.624 153.191 209.357 159.889 203.525 168.7C201.013 172.821 197.644 177.975 193.4 180.479C192.02 181.293 191.117 181.335 189.615 180.926C188.451 179.052 188.945 173.509 186.12 168.59C184.264 165.359 181.643 162.644 179.162 159.89C170.877 150.696 164.354 142.731 162.399 130.126C145.015 148.967 163.766 171.327 162.324 176.808C161.868 176.979 161.576 177.169 161.084 177.088C152.5 175.669 128.715 153.301 123.217 145.747C117.052 137.278 113.84 128.169 113.824 117.661C113.769 80.4468 151.346 71.9633 162.071 45.6634C165.255 37.855 163.923 29.3495 162.633 21.2886C162.195 18.5511 161.558 15.8489 161.997 13.0727Z" />
	<ns0:path fill="#CF2B27" d="M260.799 152.175C265.389 151.658 270.839 151.626 275.379 152.422C280.882 153.387 286.905 156.22 290.121 160.98C296.647 170.638 286.053 174.203 285.067 179.396C285.661 180.564 285.76 180.61 287.036 180.811C292.181 181.62 297.59 181.608 302.788 182.189C315.718 183.505 328.43 186.451 340.62 190.957C349.812 194.356 374.645 206.16 378.684 214.949C378.695 216.391 378.589 216.539 377.757 217.626C374.891 219.173 285.647 218.355 274.187 218.358L186.086 218.294C179.024 218.265 161.007 219.647 155.159 217.677C154.157 216.687 154.009 216.436 153.803 215.042C155.264 210.803 160.954 207.479 164.566 205.007C178.695 195.336 195.238 188.974 211.903 185.325C219.314 183.703 226.906 182.776 234.443 181.964C237.146 181.673 245.327 181.64 247.224 180.881C247.564 180.744 247.973 180.387 248.288 180.178C248.779 176.343 242.153 173.13 241.604 168.244C241.262 165.205 242.714 162.29 244.595 159.995C248.837 154.816 254.338 152.817 260.799 152.175Z" />
	<ns0:path fill="#CF2B27" d="M104.47 243.542C105.791 243.405 107.141 243.38 108.468 243.43C111.766 243.552 114.41 244.7 116.925 246.82C122.572 251.579 127.592 257.673 132.655 263.079C144.725 275.956 156.564 289.047 168.166 302.347C193.471 331.444 219.348 360.038 245.782 388.113L236.973 388.049L206.84 388.103C187.654 388.119 168.464 388.735 152.61 375.902C143.998 368.931 137.779 358.599 135.205 347.854C133.281 339.827 133.932 331.001 133.903 322.773C133.886 310.852 133.801 298.931 133.648 287.01C133.562 280.261 133.756 273.357 133.05 266.647C123.945 265.637 110.468 268.021 102.333 264.96C99.7244 263.979 97.0631 262.238 95.9194 259.591C94.7968 256.993 95.4253 253.916 96.3916 251.368C98.0423 247.016 100.349 245.398 104.47 243.542Z" />
	</svg>