<?xml version="1.0" encoding="utf-8" ?>
<svg xmlns="http://www.w3.org/2000/svg" xmlns:xlink="http://www.w3.org/1999/xlink" width="1059" height="412">
	<path fill="#FEFEFE" d="M0 0L1058.1 0C1058.83 1.13743 1058.92 2.09936 1058.96 3.42086C1059.84 35.9861 1059.01 69.6434 1059.01 102.312L1059 298.457L1059.01 380.849C1059 387.244 1059.81 405.98 1058.8 410.476C1058.68 411.032 1058.42 411.535 1058.1 412L0 412L0 0Z"/>
	<path fill="#CF2B27" d="M161.438 230.219C171.488 229.755 181.791 230.17 191.862 230.167L252.296 230.162L328.379 230.164C342.902 230.166 357.478 229.908 371.995 230.335C371.981 233.456 372.048 236.578 372.196 239.696C380.19 240.248 394.309 237.289 400.614 243.067C403.023 245.275 403.93 248.476 404.037 251.655C404.143 254.825 403.498 257.99 401.213 260.332C395.649 266.037 379.929 264.041 372.312 264.205C370.714 282.689 371.874 302.415 371.939 321.021C371.966 328.884 372.551 337.273 371.155 345.021C370.08 350.992 367.81 356.376 364.949 361.691C363.09 364.738 361.043 367.65 358.654 370.31C337.639 393.697 305.853 386.906 278.018 388.297C282.756 385.171 286.546 381.225 288.782 375.94C291.34 369.893 291.906 361.794 288.953 355.762C284.596 346.862 250.45 315.975 240.985 306.946L179.416 248.413C175.675 244.845 163.027 234.171 161.438 230.219Z"/>
	<path fill="#CF2B27" d="M859.098 89.6888C859.254 89.681 859.41 89.6741 859.566 89.668C875.241 89.0719 892.378 92.5637 904.133 103.553C918.38 116.873 922.805 137.169 923.419 155.951C924.048 175.171 920.244 196.604 906.659 211.014C895.309 223.053 879.967 226.964 863.928 227.422C848.543 227.724 832.573 224.134 820.88 213.612C807.273 201.369 802.146 182.72 801.199 164.999C800.113 144.661 803.411 121.536 817.536 105.925C828.459 93.8532 843.479 90.4869 859.098 89.6888Z"/>
	<path fill="#FEFEFE" d="M858.063 118.12C865.617 117.483 873.361 118.654 879.295 123.68C886.81 130.047 889.323 140.277 890.132 149.683C891.264 162.841 890.831 180.352 881.92 190.844C877.184 196.42 871.028 197.874 864.02 198.427C857.532 198.772 850.966 197.97 845.527 194.156C838.692 189.363 835.606 181.242 834.224 173.304C831.778 159.258 832.095 139.479 840.502 127.593C844.966 121.282 850.708 119.367 858.063 118.12Z"/>
	<path fill="#CF2B27" d="M48.044 104.752C48.1277 104.751 48.2116 104.746 48.2952 104.751C49.4879 104.813 50.2513 105.447 51.1367 106.185C61.551 114.862 71.3035 124.976 81.2458 134.216C92.0854 144.29 103.753 154.119 113.975 164.8C127.643 179.082 124.344 189.643 123.872 207.762C153.174 237.34 182.909 266.485 213.067 295.191L250.926 331.281C257.791 337.788 264.967 344.051 271.578 350.815C275.857 355.192 279.22 359.662 279.105 366.067C279.04 370.577 277.167 374.873 273.905 377.989C270.509 381.189 265.97 382.891 261.307 382.713C257.861 382.549 254.127 381.242 251.448 379.052C246.865 375.306 242.924 370.381 238.965 365.991L219.819 344.689C197.051 318.814 174.072 293.126 150.883 267.629C136.818 252.418 122.164 237.764 106.952 223.701C95.183 223.244 82.8921 223.538 72.719 216.662C69.4565 214.458 66.5441 211.248 63.918 208.322C53.9868 197.254 44.828 185.269 35.3893 173.769C27.595 164.272 19.1298 154.914 11.8868 145.008C11.0149 143.816 10.2731 142.739 9.9831 141.257C10.2637 140.225 10.2645 139.866 11.1973 139.261C12.8074 138.217 15.362 138.813 16.8943 139.737C19.9862 141.6 23.2892 145.964 25.9679 148.571L50.5349 172.325C55.7785 177.482 60.9594 183.276 66.6492 187.926C67.8797 188.932 69.0698 189.738 70.6424 190.089C74.0444 189.77 75.5229 187.476 77.6449 185.072C73.3967 179.269 68.3773 173.945 63.6314 168.545L38.9517 140.404C35.5788 136.571 31.9099 132.903 28.6728 128.972C27.9269 128.065 27.0711 126.754 27.3055 125.533C27.5802 124.102 28.3238 123.495 29.4442 122.755C31.2104 122.549 32.5497 123.301 33.9652 124.29C38.3074 127.324 42.0669 131.833 45.8988 135.507C55.4768 144.698 65.1119 153.829 74.8036 162.901C78.6363 166.479 82.3199 170.697 86.5476 173.794C88.1627 174.978 88.9231 175.253 90.8516 174.974C92.2585 174.075 93.1892 173.104 94.0067 171.634C94.7983 170.21 95.1697 169.073 94.5545 167.542C92.7943 163.164 87.2815 158.384 84.0906 154.768C79.1072 149.12 45.8786 112.468 44.7548 108.617C45.1715 106.962 46.811 105.839 48.044 104.752Z"/>
	<path fill="#CF2B27" d="M935.838 92.2733C942.904 91.0241 951.215 91.8284 958.443 91.8387C969.688 91.8546 981.384 91.2528 992.558 92.3653C997.991 92.9062 1003.48 93.9191 1008.58 95.9306C1017.68 99.5246 1024.62 107.386 1028.43 116.269C1033.91 129.061 1033.6 146.485 1028.45 159.327C1025.14 167.574 1019.18 175.141 1010.83 178.691C1011 178.821 1011.16 178.951 1011.32 179.091L1011.57 179.315C1016.24 183.464 1021.74 197.411 1025.25 203.601C1027.92 208.313 1031.21 212.804 1033.53 217.697C1034.48 219.697 1035.3 221.744 1035.45 223.972C1035.33 224.114 1035.29 224.169 1035.14 224.305C1032.26 226.942 1015.09 225.631 1010.78 225.571C1007.81 225.676 1004.84 225.5 1001.87 225.381C1000.8 222.245 997.749 218.704 996.175 215.577C993.09 209.446 989.986 203.246 987.181 196.98C985.717 193.712 984.718 190.213 983.024 187.057C982.378 185.855 981.579 184.723 980.483 183.89C978.164 182.129 973.298 182.407 970.525 182.797C969.634 182.922 968.315 183.172 967.775 184.006C963.891 189.99 970.227 218.694 965.469 224.877C962.909 226.039 940.854 226.565 937.995 225.742C937.055 225.472 936.698 225.069 936.222 224.236C935.242 222.52 935.036 219.926 934.959 217.962C934.219 199.204 935.066 180.092 935.032 161.29L934.968 119.178C934.96 111.095 933.801 99.9806 935.838 92.2733Z"/>
	<path fill="#FEFEFE" d="M967.866 120.188C974.016 119.291 982.891 119.283 988.842 120.903C992.646 121.938 995.443 124.27 997.363 127.687C1000.28 132.874 1000.65 140.197 999.043 145.853C998.156 148.965 996.592 152.163 993.684 153.789C993.667 153.854 993.658 153.921 993.632 153.983C993.356 154.637 992.581 155.177 991.976 155.51C986.975 158.262 974.569 159.351 969.041 157.63C968.196 157.368 967.691 157.217 967.285 156.386C966.098 153.952 966.897 123.085 967.866 120.188Z"/>
	<path fill="#CF2B27" d="M570.665 246.837C575.701 245.787 606.923 245.734 611.262 247.274C612.354 248.545 612.924 250.424 613.469 251.986C616.005 259.257 617.926 266.862 620.154 274.245C624.384 288.299 628.712 302.323 633.136 316.317L646.236 357.835C648.554 365.115 651.287 372.412 653.17 379.807C653.729 382.002 654.584 385.165 653.555 387.287C653.142 387.515 652.726 387.699 652.272 387.828C649.49 388.621 621.472 388.486 619.121 387.108C615.607 385.049 614.26 374.603 613.12 370.648C612.396 368.136 612.124 366.665 609.755 365.353C608.179 364.26 573.115 364.986 568.618 365.193C568.672 365.502 568.722 365.776 568.681 366.091C568.068 370.782 564.603 384.161 561.005 387.228C560.939 387.285 560.872 387.339 560.806 387.394C560.517 387.638 560.251 387.858 559.895 388C557.217 389.068 532.107 388.171 529.02 386.899C528.496 386.157 528.133 385.721 528.006 384.808C527.823 383.49 564.146 263.154 568.248 251.47C568.855 249.741 569.509 248.282 570.665 246.837Z"/>
	<path fill="#FEFEFE" d="M587.86 288.188L589.287 288.425C589.523 288.797 589.753 289.178 589.948 289.574C592.264 294.274 603.363 333.366 602.291 336.629C598.423 337.247 594.301 336.998 590.387 337.009C586.712 337.088 580.017 337.929 576.853 336.129C575.445 331.111 588.659 295.419 587.86 288.188Z"/>
	<path fill="#CF2B27" d="M432.107 246.83C433.138 246.709 434.173 246.624 435.209 246.574C443.915 246.219 452.776 246.541 461.499 246.551C480.666 246.573 505.089 244.701 520.152 258.831C529.884 267.961 534.279 281.051 534.695 294.137C535.128 307.73 531.937 322.287 522.325 332.43C513.069 342.197 500.887 344.554 488.003 344.91C481.554 345.392 475.044 344.682 468.579 345.293C467.752 345.371 466.408 345.424 465.905 346.233C461.972 352.558 468.006 381.726 463.548 387.082C460.721 388.586 435.999 388.655 432.602 387.708C431.896 386.904 431.705 385.92 431.487 384.901C430.283 379.258 430.88 372.778 430.889 367.001L430.935 338.037L430.899 281.345C430.893 271.67 430.57 261.875 430.946 252.214C431.019 250.336 431.052 248.456 432.107 246.83Z"/>
	<path fill="#FEFEFE" d="M466.416 275.786C472.983 275.13 480.992 274.828 487.345 276.591C491.615 277.775 494.811 279.969 497.002 283.898C500.341 289.884 500.786 298.065 498.915 304.582C497.945 307.964 496.123 311.578 492.944 313.322C492.752 313.812 492.533 314.063 492.145 314.422C487.455 318.762 475.323 318.319 469.281 318.007C467.672 317.924 466.396 317.821 465.288 316.598C464.301 309.343 464.556 286.655 465.158 279.105C465.259 277.839 465.394 276.651 466.416 275.786Z"/>
	<path fill="#CF2B27" d="M161.997 13.0727C167.413 13.4413 173.407 19.6291 176.977 23.3224C196.81 43.8444 202.275 70.1949 191.302 96.7052C187.876 104.984 182.107 114.246 181.993 123.344C181.938 127.739 182.81 132.386 186.003 135.618C186.595 136.217 186.603 136.17 187.423 136.177C187.786 133.078 187.855 129.147 188.954 126.247C193.18 115.104 209.103 104.226 215.485 91.584C216.718 89.1413 218.103 86.3686 218.741 83.6928C219.799 79.2611 219.176 72.8515 221.403 68.99C222.474 68.9288 223.21 69.2071 224.104 69.83C229.649 73.6975 235.239 91.0811 236.506 97.3307C240.149 115.302 235.387 131.431 223.448 145.278C216.624 153.191 209.357 159.889 203.525 168.7C201.013 172.821 197.644 177.975 193.4 180.479C192.02 181.293 191.117 181.335 189.615 180.926C188.451 179.052 188.945 173.509 186.12 168.59C184.264 165.359 181.643 162.644 179.162 159.89C170.877 150.696 164.354 142.731 162.399 130.126C145.015 148.967 163.766 171.327 162.324 176.808C161.868 176.979 161.576 177.169 161.084 177.088C152.5 175.669 128.715 153.301 123.217 145.747C117.052 137.278 113.84 128.169 113.824 117.661C113.769 80.4468 151.346 71.9633 162.071 45.6634C165.255 37.855 163.923 29.3495 162.633 21.2886C162.195 18.5511 161.558 15.8489 161.997 13.0727Z"/>
	<path fill="#CF2B27" d="M826.533 244.253C839.702 243.179 854.32 244.093 865.847 251.152C875.957 257.343 881.047 267.414 883.676 278.643C884.24 281.054 885.333 285.304 883.97 287.51C879.596 289.34 860.72 290.254 855.527 289.973C854.919 289.94 853.686 289.959 853.184 289.701C851.88 289.032 848.156 279.475 846.14 277.257C843.433 274.278 839.704 272.451 835.669 272.309C831.132 272.15 825.717 274.184 822.438 277.339C820.356 279.342 819.291 282.337 819.325 285.197C819.499 299.751 848.598 306.001 859.047 310.399C865.739 313.214 872.224 316.599 877.502 321.67C884.242 328.146 886.776 336.655 886.925 345.856C887.109 357.192 883.604 367.635 875.612 375.843C865.049 386.693 850.698 390.11 836.005 390.298C822.952 390.554 807.965 387.997 797.22 380.185C788.677 373.975 784.102 365.026 782.517 354.709C782.166 352.42 781.341 347.071 782.86 345.147C783.62 344.185 786.67 343.934 787.905 343.827C792.112 343.461 812.562 341.965 814.762 343.746C816.373 345.05 816.993 349.811 817.728 351.824C818.582 354.167 819.81 356.427 821.788 358.01C826.438 361.733 834.782 362.638 840.492 361.886C843.995 361.424 847.944 359.504 850.071 356.608C851.877 354.149 852.607 350.355 852.072 347.358C850.098 336.302 828.021 331.399 818.835 327.804C812.093 325.167 805.17 322.276 799.197 318.141C791.649 312.916 786.614 305.682 784.97 296.6C782.943 285.406 784.846 272.532 791.459 263.131C799.79 251.287 812.86 246.654 826.533 244.253Z"/>
	<path fill="#CF2B27" d="M708.093 244.253C720.054 243.182 732.9 244.059 743.8 249.453C753.425 254.215 759.89 262.36 763.296 272.462C764.423 275.803 767.252 283.771 765.588 287.12C760.255 290.183 740.022 290.128 733.389 289.97C733.426 289.803 733.496 289.53 733.503 289.343C733.628 285.61 730.869 279.857 728.285 277.34C724.955 274.095 720.468 272.628 715.869 272.689C711.563 272.746 706.745 274.073 703.721 277.286C701.573 279.569 700.607 282.655 700.744 285.758C701.352 299.48 730.44 305.938 741.257 310.473C747.082 312.916 752.799 315.953 757.523 320.197C764.426 326.4 767.657 334.374 768.112 343.54C768.694 355.274 765.632 366.15 757.595 374.936C747.416 386.064 733.658 389.518 719.142 390.218C704.161 390.584 687.606 388.597 675.802 378.529C667.832 371.731 663.921 362.072 663.173 351.767C663.033 349.836 662.651 346.892 663.994 345.331C669.05 342.814 689.351 342.511 695.372 343.367C699.218 347.097 696.861 353.587 702.773 357.939C707.849 361.675 714.812 362.877 720.968 361.918C724.853 361.313 728.572 359.485 730.901 356.227C732.752 353.663 733.483 350.459 732.926 347.347C732.21 343.473 729.509 340.538 726.372 338.361C721.748 335.154 716.225 333.378 710.984 331.453C700.64 327.654 689.253 324.033 680.171 317.664C672.77 312.474 668.032 305.006 666.478 296.086C664.57 285.14 666.035 272.508 672.539 263.268C680.837 251.479 694.445 246.595 708.093 244.253Z"/>
	<path fill="#CF2B27" d="M451.761 89.6851C454.006 89.523 456.256 89.4528 458.507 89.4748C472.155 89.5542 486.826 92.9426 496.678 102.992C503.643 110.096 508.721 122.12 508.598 132.105C507.807 133.212 506.708 133.627 505.445 134.008C502.01 135.046 478.996 137.312 476.937 135.434C472.581 131.463 475.489 124.561 466.825 119.864C462.316 117.42 455.667 117.273 450.801 118.732C444.954 120.485 440.522 125.041 437.703 130.316C430.831 143.173 431.081 167.339 435.334 181.076C437.286 187.38 441.029 193.26 447.029 196.363C452.823 199.359 460.555 199.554 466.699 197.565C472.136 195.776 476.645 191.91 479.242 186.81C480.515 184.254 482.254 179.522 481.334 176.773C475.556 176.969 463.111 179.267 458.175 177.189C457.577 175.947 457.397 174.634 457.269 173.276C456.918 169.548 456.877 153.915 458.865 151.503C462.554 150.479 467.114 150.987 470.94 151.015C478.533 151.043 502.352 149.745 507.781 151.558C508.964 152.66 509.175 154.229 509.38 155.761C510.543 164.474 509.332 189.182 507.11 197.599C505.88 202.397 503.708 206.903 500.718 210.853C493.015 220.84 480.948 225.315 468.788 226.863C452.846 228.893 433.847 226.843 420.809 216.629C407.61 206.29 401.705 188.874 399.828 172.773C397.362 151.631 399.37 126.124 413.019 108.956C422.739 96.7301 436.651 91.3887 451.761 89.6851Z"/>
	<path fill="#CF2B27" d="M555.639 92.2726C564.185 90.8748 583.83 91.7253 593.273 91.9745C593.881 92.4854 594.269 93.0206 594.589 93.7485C596.544 98.1977 597.629 103.366 598.974 108.042C601.695 117.502 604.33 126.998 607.164 136.425L623.795 190.499C626.418 198.95 629.33 207.373 631.681 215.899C632.28 218.069 633.802 222.794 632.967 224.911C632.331 225.288 631.668 225.555 630.939 225.694C626.44 226.549 621.11 225.667 616.497 225.785C612.282 225.892 605.824 226.852 601.863 225.449C594.721 222.92 597.286 207.001 592.024 203.546C591.951 203.498 591.873 203.458 591.797 203.414C590.296 202.326 566.069 202.554 562.01 202.57C560.186 202.577 557.236 202.555 555.605 203.43C551.953 205.39 551.96 220.673 547.682 224.959C544.082 226.863 520.684 226.083 516.298 224.808C516.083 224.477 515.949 224.164 515.866 223.775C515.507 222.087 516.094 219.849 516.558 218.199C517.632 214.375 519.219 210.697 520.357 206.89L537.827 149.809L548.247 115.401C550.334 108.328 552.006 98.4489 555.639 92.2726Z"/>
	<path fill="#FEFEFE" d="M572.552 131.039C573.07 131.137 573.417 131.356 573.872 131.608C576.575 139.45 578.284 148.018 580.403 156.064C582.079 162.429 584.492 169.278 585.463 175.747C585.573 176.48 585.421 177.142 585.173 177.826C581.264 178.085 577.246 177.927 573.323 177.956C568.872 178.024 564.411 177.889 559.96 177.814C561.838 175.526 572.639 134.831 572.552 131.039Z"/>
	<path fill="#CF2B27" d="M682.256 89.6883C693.567 88.5986 706.188 89.8665 716.226 95.4848C724.311 100.01 729.441 107.214 731.898 116.069C732.729 119.067 735.184 126.366 733.578 129.22C729.702 130.788 712.084 131.562 707.525 131.19C702.631 130.791 701.608 122.889 698.59 119.531C696.474 117.178 693.989 115.853 690.802 115.726C686.495 115.554 680.792 117.092 677.646 120.125C675.427 122.264 674.452 125.493 674.464 128.518C674.517 142.345 702.095 148.053 712.1 152.35C717.818 154.806 723.431 157.905 727.896 162.302C734.515 168.819 736.983 176.813 737.021 185.948C737.067 196.831 734.354 207.006 726.476 214.877C715.959 225.385 701.529 227.743 687.228 227.777C675.722 227.221 663.75 225.727 654.086 218.908C646.355 213.454 642.182 205.315 640.661 196.117C640.144 192.994 639.099 187.488 641.05 184.759C645.313 182.453 663.771 181.568 669.104 182.17C672.89 186.526 670.077 192.05 676.238 196.697C680.805 200.142 687.771 201.315 693.341 200.501C697.25 199.93 701.131 198.148 703.495 194.877C704.97 192.836 705.488 190.522 705.078 188.044C703.087 176.025 683.572 171.931 674.1 168.221C667.43 165.608 660.388 162.558 654.588 158.323C647.674 153.275 643.689 146.256 642.378 137.836C640.719 127.18 642.3 115.816 648.798 106.991C656.761 96.175 669.44 91.6139 682.256 89.6883Z"/>
	<path fill="#CF2B27" d="M260.799 152.175C265.389 151.658 270.839 151.626 275.379 152.422C280.882 153.387 286.905 156.22 290.121 160.98C296.647 170.638 286.053 174.203 285.067 179.396C285.661 180.564 285.76 180.61 287.036 180.811C292.181 181.62 297.59 181.608 302.788 182.189C315.718 183.505 328.43 186.451 340.62 190.957C349.812 194.356 374.645 206.16 378.684 214.949C378.695 216.391 378.589 216.539 377.757 217.626C374.891 219.173 285.647 218.355 274.187 218.358L186.086 218.294C179.024 218.265 161.007 219.647 155.159 217.677C154.157 216.687 154.009 216.436 153.803 215.042C155.264 210.803 160.954 207.479 164.566 205.007C178.695 195.336 195.238 188.974 211.903 185.325C219.314 183.703 226.906 182.776 234.443 181.964C237.146 181.673 245.327 181.64 247.224 180.881C247.564 180.744 247.973 180.387 248.288 180.178C248.779 176.343 242.153 173.13 241.604 168.244C241.262 165.205 242.714 162.29 244.595 159.995C248.837 154.816 254.338 152.817 260.799 152.175Z"/>
	<path fill="#CF2B27" d="M104.47 243.542C105.791 243.405 107.141 243.38 108.468 243.43C111.766 243.552 114.41 244.7 116.925 246.82C122.572 251.579 127.592 257.673 132.655 263.079C144.725 275.956 156.564 289.047 168.166 302.347C193.471 331.444 219.348 360.038 245.782 388.113L236.973 388.049L206.84 388.103C187.654 388.119 168.464 388.735 152.61 375.902C143.998 368.931 137.779 358.599 135.205 347.854C133.281 339.827 133.932 331.001 133.903 322.773C133.886 310.852 133.801 298.931 133.648 287.01C133.562 280.261 133.756 273.357 133.05 266.647C123.945 265.637 110.468 268.021 102.333 264.96C99.7244 263.979 97.0631 262.238 95.9194 259.591C94.7968 256.993 95.4253 253.916 96.3916 251.368C98.0423 247.016 100.349 245.398 104.47 243.542Z"/>
	<path fill="#CF2B27" d="M944.394 243.736C947.448 243.545 950.511 243.579 953.56 243.836C964.677 244.69 975.066 249.099 982.389 257.662C989.147 265.653 992.485 275.983 991.68 286.417C989.89 309.047 975.062 312.019 964.091 327.087C961.218 331.033 960.374 337.889 956.791 340.933C952.859 341.485 938.872 341.536 934.886 341.028C933.05 340.794 931.048 340.301 929.902 338.722C926.739 334.367 933.917 323.015 934.51 318.141C934.52 318.063 934.525 317.985 934.533 317.906C935.508 317.176 936.352 316.05 937.093 315.087C941.855 308.903 948.142 304.439 953.023 298.418C956.453 294.186 959.559 288.508 958.883 282.869C958.504 279.712 956.735 276.75 954.191 274.851C951.073 272.525 946.917 271.704 943.106 272.256C928.344 274.394 933.653 282.855 928.867 288.928C928.801 289.012 928.732 289.093 928.664 289.175C924.376 289.42 903.887 290.42 901.414 288.49C901.04 287.627 900.838 286.805 900.758 285.864C899.998 276.936 903.376 266.502 909.141 259.68C917.968 249.232 931.17 244.897 944.394 243.736Z"/>
	<path fill="#CF2B27" d="M943.678 352.956C953.654 352.074 962.469 359.411 963.407 369.379C964.345 379.346 957.055 388.199 947.09 389.192C937.047 390.194 928.106 382.835 927.16 372.789C926.214 362.743 933.625 353.846 943.678 352.956Z"/>
</svg>
